# xmcd
#
# Track frame offsets:
#	150
#	14534
#	30120
#	43736
#	52563
#
# Disc length: 907 seconds
#
# Revision: 0
# Processed by: cddbd v1.4PL0 Copyright (c) Steve Scherf et al.
# Submitted via: dBpowerAMP V4.0
#
DISCID=2b038905
DTITLE=Natalia Orly - Romances russes
DYEAR=2002
DGENRE=Chanson
TTITLE0=Oj ne veter
TTITLE1=Dorogoj dlynnuju
TTITLE2=Oj da ne vecher
TTITLE3=V lunnom sijanii
TTITLE4=Kak za menja matuchka
EXTD=Natalia Orly - Romance
EXTT0=
EXTT1=
EXTT2=
EXTT3=
EXTT4=
PLAYORDER=
